<?xml version="1.0" encoding="UTF-8"?>
<svg xmlns="http://www.w3.org/2000/svg" xmlns:xlink="http://www.w3.org/1999/xlink" viewBox="0 0 48 48" width="48px" height="48px">
<g id="surface50816036">
<path style=" stroke:none;fill-rule:nonzero;fill:rgb(80.000001%,80.000001%,80.000001%);fill-opacity:1;" d="M 20.5 6 C 12.507812 6 6 12.507812 6 20.5 C 6 28.492188 12.507812 35 20.5 35 C 23.957031 35 27.132812 33.777344 29.628906 31.75 L 39.4375 41.558594 C 39.816406 41.953125 40.375 42.109375 40.898438 41.972656 C 41.425781 41.835938 41.835938 41.425781 41.972656 40.898438 C 42.109375 40.375 41.953125 39.816406 41.558594 39.4375 L 31.75 29.628906 C 33.777344 27.132812 35 23.957031 35 20.5 C 35 12.507812 28.492188 6 20.5 6 Z M 20.5 9 C 26.867188 9 32 14.132812 32 20.5 C 32 23.601562 30.777344 26.40625 28.789062 28.472656 C 28.667969 28.5625 28.5625 28.667969 28.46875 28.792969 C 26.40625 30.777344 23.601562 32 20.5 32 C 14.132812 32 9 26.867188 9 20.5 C 9 14.132812 14.132812 9 20.5 9 Z M 20.5 9 "/>
</g>
</svg>
